<mxfile host="app.diagrams.net" modified="2023-04-20T07:42:58.003Z" agent="Mozilla/5.0 (Windows NT 10.0; Win64; x64) AppleWebKit/537.36 (KHTML, like Gecko) Chrome/112.0.0.0 Safari/537.36" version="21.1.5" etag="0vU4bUKYuMGoUMu_Q4Hv" type="github">
  <diagram name="Page-1" id="f7fMfBYOMh1CihV-n6Hg">
    <mxGraphModel>
      <root>
        <mxCell id="0" />
        <mxCell id="1" parent="0" />
      </root>
    </mxGraphModel>
  </diagram>
</mxfile>
